<?xml version="1.0" standalone="no"?>
<!DOCTYPE svg PUBLIC "-//W3C//DTD SVG 20010904//EN"
 "http://www.w3.org/TR/2001/REC-SVG-20010904/DTD/svg10.dtd">
<svg version="1.0" xmlns="http://www.w3.org/2000/svg"
 width="640.000000pt" height="640.000000pt" viewBox="0 0 640.000000 640.000000"
 preserveAspectRatio="xMidYMid meet">
<metadata>
Created by potrace 1.15, written by Peter Selinger 2001-2017
</metadata>
<g transform="translate(0.000000,640.000000) scale(0.100000,-0.100000)"
fill="#000000" stroke="none">
<path d="M3050 5706 c-117 -34 -173 -47 -265 -61 -145 -22 -288 -44 -380 -56
-63 -9 -113 -26 -235 -81 -283 -127 -347 -165 -505 -302 -261 -226 -396 -388
-586 -701 -178 -295 -188 -323 -191 -540 -2 -202 -6 -236 -30 -242 -41 -11
-66 -121 -38 -172 9 -19 6 -27 -24 -62 -67 -78 -91 -209 -62 -334 29 -120 176
-458 252 -576 17 -27 17 -27 -39 -90 -68 -76 -96 -142 -104 -248 -10 -134 29
-268 101 -348 80 -88 235 -162 355 -169 47 -2 68 -8 74 -20 29 -51 187 -232
291 -333 383 -370 517 -467 739 -535 168 -51 221 -62 407 -90 283 -43 646 -43
950 -1 158 23 207 38 376 119 469 226 743 460 964 819 l56 91 63 3 c202 11
415 192 455 387 23 108 -3 203 -86 314 -21 29 -58 64 -81 78 -23 15 -43 28
-45 29 -2 2 12 58 31 126 19 68 42 158 51 199 9 41 26 117 37 169 16 71 20
110 15 158 -8 74 -36 209 -64 308 -12 39 -25 124 -30 190 -16 197 -123 515
-197 590 -27 26 -30 36 -27 73 5 56 -13 97 -54 121 -26 16 -34 27 -34 50 0 96
-314 514 -497 663 -109 88 -292 187 -493 266 -127 50 -526 149 -840 207 -93
18 -250 18 -310 1z m547 -851 c126 -18 166 -27 328 -77 285 -88 527 -200 602
-277 l44 -46 -43 -11 c-24 -6 -95 -21 -158 -33 -404 -78 -709 -171 -1230 -376
l-144 -56 -61 15 c-198 49 -514 63 -715 32 -308 -48 -690 -185 -757 -272 -20
-27 -33 -34 -59 -34 -21 0 -34 5 -34 13 0 45 145 283 236 386 211 238 606 471
1049 619 220 74 330 102 470 118 28 4 52 8 54 10 11 10 328 2 418 -11z m1231
-670 c170 -181 202 -236 268 -460 61 -207 150 -554 190 -740 34 -155 36 -294
10 -505 -38 -295 -79 -444 -173 -630 -213 -417 -485 -672 -982 -920 -170 -84
-201 -95 -339 -119 -209 -35 -341 -44 -592 -38 -400 9 -754 78 -950 184 -125
67 -256 171 -430 338 -52 51 -119 114 -149 141 -58 53 -167 179 -250 289 -63
84 -126 212 -175 355 -85 252 -108 386 -108 625 1 239 22 415 78 625 46 175
36 160 109 160 l64 0 5 -32 c38 -247 58 -323 123 -453 110 -222 271 -384 486
-490 178 -88 361 -108 498 -56 207 79 454 359 551 625 65 179 125 488 127 658
1 52 3 57 29 66 15 6 94 38 175 71 235 96 481 174 807 257 150 37 509 112 546
113 14 1 43 -22 82 -64z m608 -1654 c60 -27 112 -85 151 -167 28 -59 35 -86
35 -135 0 -162 -175 -350 -362 -390 -75 -16 -84 -9 -55 43 63 115 128 373 150
601 7 76 13 79 81 48z m-4277 -344 c27 -97 80 -239 127 -336 l35 -74 -44 6
c-114 16 -259 98 -307 173 -47 75 -64 138 -64 239 0 50 5 108 12 131 17 58 65
126 119 168 l47 36 26 -132 c15 -73 37 -168 49 -211z"/>
<path d="M3974 3990 c-383 -77 -615 -359 -591 -718 6 -92 19 -143 73 -287 94
-249 311 -399 614 -425 338 -28 645 114 767 355 101 199 91 519 -23 745 -51
99 -173 223 -270 273 -148 76 -366 98 -570 57z m421 -61 c201 -59 334 -189
406 -396 24 -69 49 -226 49 -303 -2 -242 -119 -431 -330 -533 -137 -66 -208
-81 -370 -81 -97 0 -155 6 -205 19 -188 48 -337 166 -414 328 -62 130 -85 229
-85 362 0 124 17 196 66 285 64 115 169 210 289 264 179 79 432 102 594 55z"/>
<path d="M4234 3346 c-4 -11 -13 -15 -25 -11 -11 4 -19 2 -19 -5 0 -6 -12 -22
-27 -36 -20 -19 -24 -27 -15 -36 7 -7 12 -20 12 -30 0 -10 5 -18 11 -18 6 0
22 -9 36 -20 23 -18 28 -19 42 -6 12 11 21 12 34 4 15 -8 24 -5 43 13 15 14
21 26 15 33 -5 6 -11 27 -13 46 -2 26 -8 36 -23 38 -11 2 -30 13 -42 24 -20
19 -23 19 -29 4z"/>
<path d="M3240 2704 c0 -19 46 -77 90 -114 73 -62 112 -114 112 -154 0 -103
-101 -148 -216 -97 -44 19 -149 91 -161 111 -3 5 -13 10 -22 10 -35 0 74 -128
136 -160 54 -27 151 -42 200 -31 57 13 87 35 111 81 33 64 23 128 -34 213 -32
47 -216 168 -216 141z"/>
<path d="M3062 1729 c-266 -60 -406 -132 -388 -202 12 -50 20 -51 659 -43 519
7 594 9 610 23 25 24 22 36 -28 91 -52 57 -121 95 -217 116 -172 39 -497 47
-636 15z"/>
</g>
</svg>
